<?xml version="1.0" encoding="UTF-8"?>
<svg id="_Слой_1" data-name="Слой 1" xmlns="http://www.w3.org/2000/svg" viewBox="0 0 2160 2160">
  <defs>
    <style>
      .cls-1 {
        fill: #fff;
      }

      .cls-2 {
        fill: #e30613;
      }

      .cls-3 {
        fill: #253c36;
      }
    </style>
  </defs>
  <circle class="cls-3" cx="1080" cy="1080" r="1080"/>
  <g>
    <path class="cls-2" d="M341.77,1096.65v82.36c0,22.03-7.82,40.08-23.44,54.14-15.63,14.07-36.92,21.1-63.88,21.1h-12.31c-25.01,0-45.81-7.12-62.42-21.35-16.61-14.23-24.91-32.19-24.91-53.89v-214.54c0-21.69,8.3-39.65,24.91-53.89,16.6-14.23,37.41-21.35,62.42-21.35h12.31c26.96,0,48.25,7.04,63.88,21.1,15.62,14.07,23.44,32.12,23.44,54.14v81.34h-70.33v-83.37c0-4.4-1.76-8.3-5.27-11.69-3.52-3.38-7.62-5.08-12.31-5.08h-11.14c-4.69,0-8.79,1.7-12.31,5.08-3.52,3.39-5.27,7.29-5.27,11.69v218.6c0,4.41,1.76,8.31,5.27,11.69,3.52,3.39,7.62,5.08,12.31,5.08h11.14c4.69,0,8.79-1.69,12.31-5.08,3.52-3.38,5.27-7.28,5.27-11.69v-84.39h70.33Z"/>
    <path class="cls-2" d="M571.93,965.91v214.03c0,22.04-8.01,40.09-24.03,54.15-16.02,14.06-37.5,21.1-64.46,21.1h-9.38c-25,0-46.01-7.21-63-21.61-16.99-14.4-25.49-32.28-25.49-53.64v-214.03c0-21.34,8.5-39.22,25.49-53.63,16.99-14.4,38-21.61,63-21.61h9.38c26.96,0,48.44,7.04,64.46,21.1,16.02,14.08,24.03,32.11,24.03,54.14Z"/>
    <path class="cls-2" d="M895.41,893.81v355.87h-65.35v-209.96l-52.28,209.96h-37.03l-51.74-209.96v209.96h-65.35v-355.87h88.22l47.38,205.39,47.92-205.39h88.22Z"/>
    <path class="cls-2" d="M1112.86,893.81v56.43h-91.69v299.44h-69.74v-355.87h161.43Z"/>
    <path class="cls-2" d="M1112.86,1249.68l63.29-355.87h93.18l62.12,355.87h-70.91l-11.72-72.19h-53.33l-11.14,72.19h-71.5Zm109.59-218.87l-18.75,89.74h36.92l-18.17-89.74Z"/>
    <path class="cls-2" d="M1460.39,893.81c25,0,45.71,7.12,62.12,21.35,16.41,14.23,24.61,32.2,24.61,53.89v205.39c0,21.69-8.21,39.65-24.61,53.89-16.41,14.23-37.12,21.35-62.12,21.35h-99.63v-355.87h99.63Zm-29.89,299.44h28.13c5.07,0,9.38-1.53,12.89-4.58,3.52-3.05,5.27-6.78,5.27-11.18v-211.49c0-4.4-1.76-8.13-5.27-11.18-3.52-3.05-7.82-4.58-12.89-4.58h-28.13v243.01Z"/>
    <path class="cls-2" d="M1756.35,893.81v56.43h-86.74v92.02h86.74v56.43h-86.74v94.56h86.74v56.43h-157.06v-355.87h157.06Z"/>
    <path class="cls-2" d="M1899.34,891.78c25,0,45.71,7.12,62.12,21.35,16.41,14.23,24.61,32.2,24.61,53.89v47.79h-70.33v-50.84c0-4.4-1.76-8.13-5.28-11.18-3.52-3.05-7.82-4.58-12.89-4.58h-9.96c-5.08,0-9.38,1.52-12.89,4.58-3.52,3.05-5.27,6.78-5.27,11.18v26.44c0,11.87,6.45,23.89,19.34,36.1l58.61,53.38c15.62,13.56,25.98,27.29,31.06,41.18,5.07,13.9,7.62,30.34,7.62,49.31v6.1c0,21.69-8.21,39.65-24.61,53.89-16.41,14.23-37.12,21.35-62.12,21.35h-13.48c-25.01,0-45.71-7.12-62.12-21.35-16.41-14.23-24.61-32.19-24.61-53.89v-44.74h70.33v47.79c0,4.41,1.76,8.13,5.27,11.18,3.52,3.05,7.81,4.58,12.89,4.58h9.96c5.07,0,9.38-1.53,12.89-4.58,3.52-3.05,5.28-6.78,5.28-11.18v-21.86c0-8.13-.79-14.31-2.35-18.56-1.57-4.23-5.86-9.57-12.89-16.01l-65.05-57.95c-24.23-21.35-36.34-48.63-36.34-81.85v-16.27c0-21.69,8.2-39.65,24.61-53.89,16.41-14.23,37.11-21.35,62.12-21.35h13.48Z"/>
  </g>
  <g>
    <path class="cls-2" d="M666.99,1480.75v33.22c0,8.89-3.15,16.16-9.45,21.84-6.3,5.67-14.89,8.51-25.76,8.51h-4.96c-10.09,0-18.48-2.87-25.17-8.61-6.7-5.74-10.05-12.98-10.05-21.73v-86.52c0-8.75,3.35-15.99,10.05-21.73,6.7-5.74,15.09-8.61,25.17-8.61h4.96c10.87,0,19.46,2.84,25.76,8.51,6.3,5.67,9.45,12.95,9.45,21.84v32.81h-28.36v-33.63c0-1.77-.71-3.35-2.13-4.71-1.42-1.37-3.07-2.05-4.96-2.05h-4.49c-1.89,0-3.55,.69-4.96,2.05-1.42,1.37-2.13,2.94-2.13,4.71v88.17c0,1.78,.71,3.35,2.13,4.71,1.42,1.37,3.07,2.05,4.96,2.05h4.49c1.89,0,3.55-.68,4.96-2.05,1.42-1.36,2.13-2.94,2.13-4.71v-34.04h28.36Z"/>
    <path class="cls-2" d="M684.48,1513.96v-86.32c0-8.61,3.43-15.82,10.28-21.63,6.85-5.81,15.32-8.71,25.41-8.71h3.78c10.87,0,19.54,2.84,26,8.51,6.46,5.67,9.69,12.95,9.69,21.84v86.32c0,8.89-3.23,16.16-9.69,21.84-6.46,5.67-15.13,8.51-26,8.51h-3.78c-10.09,0-18.55-2.9-25.41-8.71-6.85-5.81-10.28-13.02-10.28-21.63Zm28.13,1.02c0,1.78,.67,3.32,2.01,4.61,1.34,1.3,3.03,1.95,5.08,1.95h4.49c2.05,0,3.74-.65,5.08-1.95,1.34-1.3,2.01-2.84,2.01-4.61v-88.37c0-1.77-.67-3.31-2.01-4.61-1.34-1.3-3.04-1.95-5.08-1.95h-4.49c-2.05,0-3.74,.65-5.08,1.95-1.34,1.3-2.01,2.84-2.01,4.61v88.37Z"/>
    <path class="cls-2" d="M850.16,1398.94v22.76h-43.49v35.06h43.49v22.96h-43.49v62.74h-28.13v-143.52h71.62Z"/>
    <path class="cls-2" d="M937.15,1398.94v22.76h-43.49v35.06h43.49v22.96h-43.49v62.74h-28.13v-143.52h71.62Z"/>
    <path class="cls-2" d="M1017.98,1398.94v22.76h-34.98v37.11h34.98v22.76h-34.98v38.14h34.98v22.76h-63.35v-143.52h63.35Z"/>
    <path class="cls-2" d="M1102.12,1398.94v22.76h-34.98v37.11h34.98v22.76h-34.98v38.14h34.98v22.76h-63.35v-143.52h63.35Z"/>
    <path class="cls-2" d="M1203.05,1398.12c10.08,0,18.44,2.87,25.05,8.61,6.62,5.74,9.93,12.99,9.93,21.73v19.27h-28.36v-20.5c0-1.78-.71-3.28-2.13-4.51-1.42-1.23-3.15-1.85-5.2-1.85h-4.02c-2.05,0-3.78,.61-5.2,1.85-1.42,1.23-2.13,2.73-2.13,4.51v10.66c0,4.79,2.6,9.64,7.8,14.56l23.64,21.53c6.3,5.47,10.48,11,12.53,16.61,2.05,5.61,3.07,12.23,3.07,19.89v2.46c0,8.75-3.31,15.99-9.93,21.73-6.62,5.74-14.97,8.61-25.05,8.61h-5.44c-10.09,0-18.44-2.87-25.05-8.61-6.62-5.74-9.93-12.98-9.93-21.73v-18.04h28.36v19.27c0,1.78,.71,3.28,2.13,4.51,1.42,1.23,3.15,1.84,5.2,1.84h4.02c2.05,0,3.78-.61,5.2-1.84,1.42-1.23,2.13-2.73,2.13-4.51v-8.82c0-3.28-.32-5.77-.94-7.48-.63-1.71-2.36-3.86-5.2-6.46l-26.24-23.37c-9.77-8.61-14.65-19.61-14.65-33.01v-6.56c0-8.75,3.31-15.99,9.93-21.73,6.62-5.74,14.97-8.61,25.05-8.61h5.44Z"/>
    <path class="cls-2" d="M1335.17,1398.94v143.52h-27.42v-60.49h-18.44v60.49h-28.36v-143.52h28.36v60.08h18.44v-60.08h27.42Z"/>
    <path class="cls-2" d="M1356.2,1513.96v-86.32c0-8.61,3.43-15.82,10.28-21.63,6.85-5.81,15.32-8.71,25.41-8.71h3.78c10.87,0,19.54,2.84,26,8.51,6.46,5.67,9.69,12.95,9.69,21.84v86.32c0,8.89-3.23,16.16-9.69,21.84-6.46,5.67-15.13,8.51-26,8.51h-3.78c-10.09,0-18.55-2.9-25.41-8.71-6.85-5.81-10.28-13.02-10.28-21.63Zm28.13,1.02c0,1.78,.67,3.32,2.01,4.61,1.34,1.3,3.03,1.95,5.08,1.95h4.49c2.05,0,3.74-.65,5.08-1.95,1.34-1.3,2.01-2.84,2.01-4.61v-88.37c0-1.77-.67-3.31-2.01-4.61-1.34-1.3-3.04-1.95-5.08-1.95h-4.49c-2.05,0-3.74,.65-5.08,1.95-1.34,1.3-2.01,2.84-2.01,4.61v88.37Z"/>
    <path class="cls-2" d="M1452.4,1542.46v-143.52h40.65c10.08,0,18.39,2.87,24.94,8.61,6.54,5.74,9.81,12.99,9.81,21.73v35.06c0,8.75-3.27,15.99-9.81,21.73-6.54,5.74-14.85,8.61-24.94,8.61h-12.29v47.77h-28.36Zm28.36-70.53h11.35c2.05,0,3.78-.61,5.2-1.84,1.42-1.23,2.13-2.73,2.13-4.51v-37.52c0-1.78-.71-3.28-2.13-4.51-1.42-1.23-3.15-1.85-5.2-1.85h-11.35v50.23Z"/>
  </g>
  <path class="cls-2" d="M1787.77,1456.76c-52.14-40.34-202.97-47.79-202.97-47.79v140.9s153.93,9.93,184.97,39.1c0,0-4.97-37.24-55.24-94.34h0c12.47-12.17,24.25-19.53,37.96-26.64,11.03-5.72,22.98-9.49,35.29-11.22h0Z"/>
  <path class="cls-2" d="M323.52,1503.62c52.14,40.34,202.97,47.79,202.97,47.79v-140.9s-153.93-9.93-184.97-39.1c0,0,4.97,37.24,55.24,94.34h0c-12.47,12.17-24.25,19.53-37.96,26.64-11.03,5.72-22.98,9.49-35.29,11.22h0Z"/>
  <path class="cls-3" d="M473.64,1225.29c-1.21,1.29-2.88,2-4.64,2-4.31,0-7.38-4.16-6.1-8.28,6.31-20.45,20.01-75.96,4.82-134.68-.96-3.73-1.82-7.53-2.58-11.4h-.01c-17.92-104.93,10.56-143.69,18.72-152.36,1.21-1.29,2.88-2,4.64-2,4.31,0,7.38,4.16,6.1,8.28-6.31,20.45-20.01,75.96-4.82,134.68,.96,3.73,1.82,7.53,2.58,11.4h0c17.92,104.93-10.56,143.69-18.72,152.36Z"/>
  <g>
    <path class="cls-1" d="M277.11,629.46l18.74,10.35-9.18,16.61,99.43,54.92-11.03,19.97-99.43-54.92-9.18,16.61-18.74-10.35,29.38-53.19Z"/>
    <path class="cls-1" d="M350.09,524.15l108.08,80.88-13.32,17.8-45.55-34.08-8.96,11.97,45.55,34.09-13.78,18.42-108.08-80.88,13.78-18.42,45.24,33.85,8.96-11.97-45.24-33.85,13.32-17.8Z"/>
    <path class="cls-1" d="M434.56,432.16l15.21,15.06-19.96,20.16,24.8,24.56,19.96-20.16,15.21,15.06-19.96,20.16,25.49,25.24,19.96-20.16,15.21,15.06-36.15,36.5-95.92-94.99,36.15-36.5Z"/>
    <path class="cls-1" d="M571.39,324.58l74.79,112.38-19.15,12.74-74.79-112.38,19.15-12.74Z"/>
    <path class="cls-1" d="M692.8,257.37l60.5,120.68-16.45,8.25-54.92-47.11-.17,.09,29.9,59.65-20.56,10.31-60.5-120.68,17.31-8.68,54.93,49.26,.17-.09-30.77-61.37,20.56-10.31Z"/>
    <path class="cls-1" d="M813.82,211.99l6.8,20.3-17.99,6.03,36.07,107.71-21.63,7.24-36.07-107.71-18,6.03-6.8-20.3,57.62-19.3Z"/>
    <path class="cls-1" d="M931.58,185.07l4.03,21.02-27.86,5.34,6.57,34.28,27.86-5.34,4.03,21.02-27.86,5.34,6.75,35.23,27.86-5.34,4.03,21.02-50.45,9.67-25.41-132.58,50.45-9.67Z"/>
    <path class="cls-1" d="M1009.63,311.06l-6.96-134.81,32.73-1.69c8.17-.42,15.07,1.93,20.71,7.04,5.64,5.12,8.67,11.78,9.09,20l1.58,30.62c.6,11.56-3.48,19.43-12.22,23.61l18.62,51.95-23.16,1.2-17-50.49-3.06,.16,2.65,51.23-22.97,1.19Zm19.35-71.29l9.19-.47c1.66-.09,3.03-.7,4.13-1.86,1.09-1.15,1.6-2.56,1.51-4.23l-1.63-31.58c-.09-1.67-.73-3.05-1.94-4.15-1.21-1.1-2.64-1.6-4.3-1.52l-9.19,.47,2.24,43.33Z"/>
    <path class="cls-1" d="M1203.23,180.95l-12.83,134.38-18.32-1.75-21.52-69.08-.19-.02-6.34,66.42-22.9-2.19,12.83-134.38,19.27,1.84,20.38,70.91,.19,.02,6.52-68.34,22.9,2.18Z"/>
    <path class="cls-1" d="M1235.34,322.82l52.15-126.22,29.61,7.23-12.3,135.96-22.53-5.5,2.78-27.51-16.94-4.14-10.04,25.74-22.72-5.55Zm40.49-40.53l11.73,2.87,8.24-57.15-.37-.09-19.6,54.37Z"/>
    <path class="cls-1" d="M1445.98,247.44l-7.73,19.96-17.7-6.85-41,105.93-21.27-8.23,41-105.93-17.7-6.85,7.73-19.96,56.67,21.93Z"/>
    <path class="cls-1" d="M1527.55,287.38l-63.19,119.29-20.33-10.77,63.19-119.29,20.33,10.77Z"/>
    <path class="cls-1" d="M1526.14,411.66l46.39-66.63c4.63-6.65,10.78-10.62,18.47-11.93,7.68-1.31,14.88,.37,21.59,5.05l2.52,1.75c7.24,5.04,11.48,11.24,12.73,18.62,1.25,7.37-.51,14.49-5.29,21.35l-46.39,66.63c-4.78,6.86-10.84,10.98-18.19,12.36-7.35,1.38-14.64-.44-21.88-5.48l-2.52-1.75c-6.71-4.67-10.79-10.84-12.23-18.5-1.44-7.66,.15-14.81,4.78-21.46Zm18.17,13.83c-.96,1.37-1.34,2.87-1.14,4.49,.19,1.62,.97,2.91,2.34,3.86l2.99,2.08c1.36,.95,2.84,1.23,4.43,.85,1.59-.38,2.86-1.26,3.82-2.63l47.49-68.21c.95-1.37,1.33-2.87,1.14-4.49-.2-1.62-.97-2.91-2.34-3.86l-2.99-2.08c-1.37-.95-2.84-1.23-4.43-.85-1.59,.38-2.86,1.26-3.82,2.63l-47.49,68.21Z"/>
    <path class="cls-1" d="M1741.8,447.84l-92.36,98.45-13.42-12.59,25.25-67.81-.14-.13-45.65,48.66-16.78-15.74,92.36-98.45,14.12,13.25-27.26,68.56,.14,.13,46.97-50.07,16.78,15.74Z"/>
    <path class="cls-1" d="M1680.29,579.7l118.68-67.58,18.92,23.89-93.21,99.74-14.4-18.18,19.09-20.01-10.83-13.67-23.73,14.15-14.52-18.33Zm56.85-7.12l7.5,9.47,41.6-40.04-.24-.3-48.86,30.87Z"/>
    <path class="cls-1" d="M1795.02,707.05l-18.74,11.13-26.23-44.17,116.07-68.93,11.65,19.61-97.33,57.8,14.58,24.56Z"/>
  </g>
  <g>
    <path class="cls-1" d="M692.34,1756.1l-73.05,112.81-19.22-12.45,43.1-66.56-58.48,56.6-10.89-7.05,27.88-76.41-43.1,66.56-19.22-12.45,73.05-112.81,25.95,16.8-28.23,74.13,56.26-55.98,25.95,16.8Z"/>
    <path class="cls-1" d="M759.81,1788.4l-56.22,122.08-20.8-9.58,56.21-122.08,20.8,9.58Z"/>
    <path class="cls-1" d="M820.75,1931.08l-6.82,20.6-48.55-16.08,42.25-127.59,21.56,7.14-35.43,106.99,26.99,8.94Z"/>
    <path class="cls-1" d="M951.15,1845.61l-4.12,20.91-27.71-5.46-6.72,34.1,27.71,5.46-4.12,20.91-27.71-5.46-6.91,35.04,27.71,5.46-4.12,20.91-50.18-9.89,26-131.86,50.18,9.89Z"/>
    <path class="cls-1" d="M1120.57,1854.43l.49,21.31-28.24,.65,.79,34.74,28.24-.65,.49,21.3-28.24,.65,.82,35.7,28.24-.65,.49,21.31-51.13,1.17-3.08-134.37,51.13-1.17Z"/>
    <path class="cls-1" d="M1236.17,1839.38l21.83,132.62-18.08,2.98-38.29-61.02-.19,.03,10.79,65.55-22.6,3.72-21.83-132.62,19.02-3.13,37.65,63.07,.19-.03-11.1-67.44,22.6-3.72Z"/>
    <path class="cls-1" d="M1314.01,1817.98c7.76-2.47,15-1.95,21.72,1.55s11.33,9.16,13.81,16.96l23.53,73.91c2.49,7.81,2,15.08-1.46,21.82-3.46,6.74-9.07,11.35-16.83,13.82l-30.92,9.84-40.77-128.07,30.92-9.84Zm25.03,110.71l8.73-2.78c1.57-.5,2.74-1.48,3.48-2.92,.74-1.44,.86-2.96,.36-4.55l-24.23-76.11c-.5-1.58-1.48-2.75-2.92-3.5-1.44-.75-2.95-.87-4.53-.37l-8.73,2.78,27.84,87.45Z"/>
    <path class="cls-1" d="M1404.87,1841.81l-.08-.17c-1.62-3.62-1.81-7.15-.55-10.58,1.25-3.43,3.33-5.8,6.23-7.1l.87-.39c2.9-1.3,6.08-1.28,9.53,.05,3.45,1.33,5.99,3.81,7.61,7.43l.08,.18c1.62,3.62,1.77,7.17,.47,10.62-1.31,3.46-3.42,5.84-6.32,7.14l-.87,.39c-2.9,1.3-6.05,1.27-9.45-.09-3.4-1.35-5.9-3.84-7.52-7.47Z"/>
    <path class="cls-1" d="M1492.83,1735.16l10.71,18.42-24.42,14.2,17.47,30.04,24.42-14.2,10.71,18.42-24.42,14.2,17.95,30.87,24.42-14.2,10.71,18.42-44.22,25.71-67.55-116.19,44.22-25.71Z"/>
    <path class="cls-1" d="M1599.32,1793.07l-8.84-11.37,18.08-14.05,9.31,11.98c1.02,1.31,2.38,2.12,4.07,2.43,1.69,.31,3.14,0,4.34-.94l2.86-2.23c1.21-.94,1.87-2.26,1.99-3.97,.12-1.71-.33-3.23-1.35-4.54l-14.49-18.65c-1.02-1.31-2.38-2.12-4.07-2.43-1.69-.31-3.14,0-4.34,.94l-10.25,7.96-12.96-16.67,10.4-8.08c1.21-.94,1.87-2.26,1.99-3.98,.12-1.71-.33-3.23-1.35-4.54l-14.85-19.1c-1.02-1.31-2.38-2.12-4.07-2.43-1.69-.31-3.14,0-4.34,.94l-2.86,2.23c-1.21,.94-1.87,2.26-1.99,3.98-.12,1.71,.33,3.23,1.35,4.54l8.37,10.76-18.08,14.05-7.89-10.16c-5.1-6.57-7.3-13.49-6.6-20.77,.71-7.27,4.58-13.65,11.61-19.12l3.16-2.46c6.43-5,13.43-7.03,21-6.11,7.57,.93,13.87,4.62,18.89,11.09l13.79,17.74c2.51,3.24,4.11,6.69,4.8,10.37,.69,3.68,.43,6.72-.77,9.11,2.61-.57,5.58-.08,8.89,1.48,3.31,1.56,6.26,4.01,8.85,7.35l13.43,17.28c5.03,6.47,7.05,13.48,6.09,21.05-.97,7.56-4.67,13.84-11.1,18.84l-3.16,2.46c-6.93,5.39-14.04,7.55-21.31,6.47-7.28-1.07-13.47-4.89-18.58-11.46Z"/>
  </g>
</svg>